PathFileType	4	(X/Y/Z)	Patient4_TMGait_0pt2_02_left_19.trc.trc
DataRate	CameraRate	NumFrames	NumMarkers	Units	OrigDataRate	OrigDataStartFrame	OrigNumFrames
46.357615894040	46.357615894040	6	33	mm	46.357615894040	89	       141
Frame#	Time	R.Midfoot.Superior			Sacral			L.Shoulder			Chest			R.Shoulder			Neck			R.ASIS			L.ASIS			R.Thigh.Superior			R.Thigh.Lateral			R.Thigh.Inferior			R.Patella			L.Thigh.Superior			L.Thigh.Lateral			L.Thigh.Inferior			L.Patella			L.Shank.Superior			L.Shank.Lateral			L.Shank.Inferior			R.Shank.Superior			R.Shank.Lateral			R.Shank.Inferior			R.Heel			R.Midfoot.Lateral			R.Toe			L.Heel			L.Midfoot.Lateral			L.Midfoot.Superior			L.Toe			L.Elbow			L.Wrist			R.Elbow			R.Wrist			
		X1	Y1	Z1	X2	Y2	Z2	X3	Y3	Z3	X4	Y4	Z4	X5	Y5	Z5	X6	Y6	Z6	X7	Y7	Z7	X8	Y8	Z8	X9	Y9	Z9	X10	Y10	Z10	X11	Y11	Z11	X12	Y12	Z12	X13	Y13	Z13	X14	Y14	Z14	X15	Y15	Z15	X16	Y16	Z16	X17	Y17	Z17	X18	Y18	Z18	X19	Y19	Z19	X20	Y20	Z20	X21	Y21	Z21	X22	Y22	Z22	X23	Y23	Z23	X24	Y24	Z24	X25	Y25	Z25	X26	Y26	Z26	X27	Y27	Z27	X28	Y28	Z28	X29	Y29	Z29	X30	Y30	Z30	X31	Y31	Z31	X32	Y32	Z32	X33	Y33	Z33	

89	45.018285714286	1208.796055951721	97.795390027831	614.464201772642	951.622121190599	1010.499181728138	468.704437670446	1173.638163882266	1432.493209899884	317.231353601525	1233.987711137905	1365.479012233065	497.666392838927	1116.028946708301	1446.616338507462	645.369284526573	1117.963063716475	1497.374839815785	465.329990505525	1158.490763069196	944.380537130894	624.305777264392	1187.921950829082	959.462852161053	350.058678233982	1211.366896568795	746.364619134212	592.936795174278	1133.595087197682	634.963540032010	652.211878210046	1215.309975990628	584.463680405223	574.955640177397	1220.868221381772	498.568682749937	583.024628806593	1183.908833585274	730.419775363166	369.647335547853	1074.411407803264	635.574027898325	291.682487033200	1133.180778230699	541.174356166661	354.875588628717	1118.583567578148	472.416966794535	357.891251042372	1077.551313064700	409.961857721663	344.404373580630	967.686078388745	318.388929769960	285.785284679131	995.045262094140	193.544821868493	347.435514722790	1195.335087279545	408.694456362028	593.765943913494	1128.939689191995	306.957778949116	664.245840209586	1169.429974955350	209.440158963492	603.816163813474	1035.725080618713	44.095695122487	590.947476108488	1123.878170778936	37.580030802042	659.004184424006	1330.616183359465	46.427042423650	635.732078388143	843.387202533207	52.699907777966	381.358355089371	916.996126135156	42.644265696163	301.672523099153	1004.652324522977	98.147048855069	327.248276394388	1128.583658801112	38.716731243665	297.607318630211	1309.086265194182	1120.589850143287	191.240342729309	1568.834711658066	1099.694645558812	205.698805325317	969.356154124146	1129.779808207482	745.302755377774	971.425519464312	867.150846991565	758.563990636189	
90	45.039857142857	1204.728409228640	97.715620938959	614.634988924256	952.081782688748	1010.745803077610	477.363468687580	1170.861740905852	1432.823755953373	322.142908782469	1234.213963717182	1366.041877493975	501.653135734927	1118.404608038064	1446.784397815607	651.245626988888	1117.613316886255	1497.808914744801	470.993575376289	1161.240884848965	944.741749376359	629.870508234752	1186.820324264503	959.960595088719	355.090909892096	1212.586102429925	746.124307771948	597.299578133625	1134.629543418899	634.681763665297	656.630210844189	1215.376269794743	584.059284319141	578.479178588166	1220.388407546482	497.854667289005	585.836456623553	1183.929265060732	731.125377435966	373.288544897932	1074.121482060358	636.294639952251	295.798510163373	1134.889923077804	541.439752574528	357.039918847957	1120.849610193977	471.888169892758	359.192993476990	1078.205269581389	410.096873189281	345.921469747354	966.269885921296	320.635309283937	287.720188646572	992.997020821945	194.666396190484	347.557270242914	1194.086701662646	408.110608112054	596.035377764617	1127.308112562231	306.356631510819	666.073447331771	1166.525152850797	208.971940457513	604.617494614625	1031.642242472100	44.088110179583	591.066526997234	1119.802385488649	37.524481016720	659.106366469149	1326.588154480636	46.196870284905	635.820018341356	839.620485251908	55.420370450161	381.123322462401	913.087871223988	43.870737785973	301.544191625362	1001.563812839902	98.487428247681	326.705424462420	1124.533617560926	38.451415719117	297.502560457448	1297.627082587114	1115.217292208762	197.426140790697	1556.057936605340	1079.492426245074	209.374742876583	979.461653730516	1126.901579599844	755.508521794639	989.053598373271	864.537696211378	770.265561818187	
91	45.061428571429	1200.588148317614	97.631596499178	614.787013160929	952.348689060174	1010.970968098898	486.041404376350	1167.855744702069	1433.052361389964	327.025177874176	1234.273016925940	1366.498639820230	505.530688794746	1120.788918362276	1446.882942386705	657.061729627931	1117.188632259780	1498.175212110377	476.641116280366	1163.780234818705	944.972732352475	635.327373007698	1185.407693233681	960.446742892408	360.101734491762	1213.487936511673	745.765035597576	601.575927486557	1135.271367450437	634.329368533244	660.992577584596	1215.033766736938	583.605060939092	581.969427874521	1219.409450952929	497.132485249256	588.675052413698	1184.405052052762	731.986097366234	376.893159022171	1074.767035511479	636.785778303090	299.845990174827	1137.919782357027	541.690416755781	359.124473443398	1124.571189546625	471.167628291389	360.287296564571	1080.065501894964	410.078782994166	347.307220250724	965.881997955824	323.106206570486	289.582593341573	991.566721644503	196.003345661020	347.565774525630	1192.444227633218	407.518994509049	598.350294819284	1125.304515321924	305.702697326956	667.899419456522	1163.405243065215	208.515163433048	605.454941955894	1027.484960515145	44.062929284572	591.156952964756	1115.650494220906	37.460893810181	659.190146176168	1322.466044829860	46.008722428821	635.869170332246	836.111028937972	58.972793562980	380.806420890750	909.299599845202	45.589414212351	301.337123621991	998.771071016488	98.947524946164	326.028828497186	1120.396377678740	38.156749759426	297.383018447199	1285.092414473197	1109.792269222774	203.552250339558	1540.765963225333	1057.325222968554	213.334148667204	990.439458683361	1123.751351043512	765.461955559529	1008.251992473809	861.881087430056	781.226476258175	
92	45.083000000000	1196.368386599123	97.542250324582	614.927841931798	952.397516123993	1011.145825956635	494.712770267042	1164.633786694240	1433.163205060035	331.876054953513	1234.161100777462	1366.811376103365	509.292847222233	1123.178007057923	1446.885989472941	662.793400378513	1116.692004156031	1498.446492088140	482.268411667479	1166.078004990163	945.072548483991	640.651136896839	1183.669587142405	960.897141772793	365.077758874353	1214.104004396854	745.303616321719	605.743693397693	1135.604453744284	633.906865543968	665.282216481657	1214.362966403818	583.109278216927	585.392077312702	1218.062177416442	496.394067441856	591.514031998674	1185.456434954676	733.051005283698	380.518780358631	1076.615828233468	637.037371525610	303.822137509862	1142.534462429781	541.988215858487	361.212656674315	1130.013152449752	470.309896387027	361.254547332388	1083.410549377996	409.938724232571	348.614349536749	966.808803000657	325.908975976105	291.389730100479	990.934796956800	197.678215758253	347.494749757241	1190.503856435396	406.908465909684	600.685431724480	1123.018672145751	305.000522105642	669.721507971161	1160.109441087707	208.057575031153	606.317546738404	1023.246313677318	44.020719656999	591.231903525012	1111.415783963083	37.390326764604	659.269396821711	1318.249979421729	45.862194456438	635.895252956859	832.996458257151	63.689682052990	380.430475898951	905.712692326915	48.078528852175	301.070268839662	996.372145306513	99.647841601208	325.246287754251	1116.136944508840	37.801215977324	297.250561288238	1271.588951115687	1104.425737556316	209.608988859051	1522.664759059144	1033.497237374273	217.618907659965	1002.279757887152	1120.356137974116	775.095366533600	1029.119716374083	859.295898412030	791.390571883752	
93	45.104571428571	1192.076388091992	97.447599272358	615.064792805333	952.199814991583	1011.228369325556	503.348341629546	1161.209630761312	1433.127163547131	336.683707911635	1233.878811439095	1366.931536472917	512.924058079110	1125.573603397402	1446.759267895336	668.408498129651	1116.128467613240	1498.585524284787	487.859860155062	1168.101141034955	945.032710139807	645.816742885337	1181.592844449541	961.279784015983	370.000907168085	1214.487705680978	744.759065173071	609.785933302369	1135.741767698709	633.403086114770	669.476331180941	1213.487465819874	582.578404093537	588.714204102228	1216.531569705061	495.622933536884	594.322919236594	1187.175480242564	734.383110998730	384.223966356165	1079.895693585431	637.075418336468	307.731390513695	1148.935256386899	542.430841379935	363.405775593978	1137.382348156017	469.415518996432	362.204299360757	1088.478874372264	409.741775776951	349.916676185716	969.311180478345	329.167967698789	293.177117151913	991.278662820890	199.838648625659	347.404386884890	1188.402887355677	406.259993160063	603.008046143899	1120.572640848452	304.253231460854	671.529761944950	1156.700415717889	207.585281854619	607.191273428237	1018.933893355080	43.965429108529	591.303780762280	1107.106390220088	37.314063353263	659.354514767363	1313.954054633939	45.752598581787	635.912133088365	830.442024264970	69.915762460696	380.046506169041	902.434029382733	51.648932978623	300.785826514080	994.476682544372	100.743153191421	324.414153073170	1111.736544511746	37.354542741042	297.113999936024	1257.242057988259	1099.197272842013	215.608882749753	1501.507341896013	1008.397720024506	222.254167549350	1014.939110787531	1116.763993217922	784.345317639366	1051.715392526028	856.945641413736	800.710836242607	
94	45.126142857143	1187.728887675596	97.347954240876	615.202222765650	951.728536506565	1011.160973612826	511.910494890347	1157.595662153634	1432.900025201392	341.426742188305	1233.427684824836	1366.801407871937	516.401213042377	1127.976795201864	1446.458137281112	673.868902022176	1115.502668331770	1498.544368907155	493.387489802140	1169.816988207243	944.832402196090	650.798781381373	1179.168986668236	961.555303784142	374.848801157331	1214.714810857484	744.147237041445	613.685253876502	1135.822869904229	632.792862252197	673.541664586192	1212.570191783013	582.013805641414	591.899022232843	1215.046111440656	494.791896031658	597.061702439622	1189.610555427325	736.051675596583	388.064996219794	1084.764033660366	636.961814608934	311.589402960420	1157.227417190469	543.145623550602	365.819885206105	1146.796820358095	468.625461567456	363.273342924925	1095.436725404325	409.582597034033	351.309761837214	973.592726902220	333.007808975871	295.002744282060	992.754128901115	202.639175610452	347.385405255314	1186.312513695578	405.544157425620	605.274609335957	1118.112366379260	303.460888082052	673.302494432782	1153.258692456182	207.080748380224	608.056134333314	1014.564584690508	43.903870358006	591.382246367919	1102.739893547638	37.234269059137	659.451321673528	1309.600512356795	45.670362535615	635.930444596195	828.630417723282	77.953640375544	379.738275752340	899.594719382676	56.604841946089	300.553018004701	993.199660431157	102.409886709901	323.620980777692	1107.208487188101	36.796858073011	296.991889014621	1242.178633650929	1094.147227793958	221.585568283438	1477.117005809998	982.495372912548	227.250492517927	1028.346827161970	1113.033071119176	793.154180223316	1076.052371455345	855.031723812646	809.144387912029	
